<svg width="180" height="48" viewBox="0 0 180 48" fill="none" xmlns="http://www.w3.org/2000/svg">
    <path d="M23.6437 47.5928H0V0H23.6437C36.6797 0 47.2874 10.6784 47.2874 23.8014C47.2874 36.9243 36.6797 47.5928 23.6437 47.5928ZM6.87191 40.6751H23.6437C32.8947 40.6751 40.4155 33.1042 40.4155 23.7915C40.4155 14.4787 32.8947 6.90784 23.6437 6.90784H6.87191V40.6751Z" fill="#FF6800"/>
    <path d="M23.0735 37.4092C15.4053 37.4092 9.16255 31.1249 9.16255 23.4055H16.0345C16.0345 27.3147 19.1902 30.4915 23.0735 30.4915C26.9568 30.4915 30.1125 27.3147 30.1125 23.4055H36.9845C36.9845 31.1249 30.7417 37.4092 23.0735 37.4092Z" fill="#FF6800"/>
    <path d="M58.426 12.6084H69.1517C71.7176 12.6084 73.9787 13.1032 75.9548 14.083C77.921 15.0727 79.4546 16.4582 80.5459 18.2396C81.6371 20.0309 82.1778 22.1092 82.1778 24.4843C82.1778 26.8595 81.6371 28.9477 80.5459 30.739C79.4546 32.5303 77.921 33.9158 75.9548 34.8956C73.9885 35.8852 71.7176 36.3702 69.1517 36.3702H58.426V12.6084ZM68.8862 31.8672C71.2457 31.8672 73.1332 31.2041 74.5391 29.878C75.9449 28.5518 76.6528 26.7606 76.6528 24.4942C76.6528 22.2279 75.9449 20.4366 74.5391 19.1105C73.1332 17.7843 71.2457 17.1213 68.8862 17.1213H63.892V31.8573H68.8862V31.8672Z" fill="#595959"/>
    <path d="M99.0283 34.4008C100.424 33.0351 101.142 31.0854 101.142 28.6113V19.447H95.9806V28.443C95.9806 29.7395 95.7349 30.7094 95.263 31.323C94.7714 31.9464 94.0636 32.2631 93.1493 32.2631C92.235 32.2631 91.5272 31.9464 91.0356 31.323C90.5637 30.7193 90.3179 29.7494 90.3179 28.443V19.447H85.0583V28.6113C85.0583 31.0854 85.7662 33.0351 87.172 34.4008C88.5778 35.7665 90.5736 36.4593 93.1001 36.4593C95.6267 36.4494 97.6224 35.7665 99.0283 34.4008Z" fill="#595959"/>
    <path d="M118.051 20.6247C116.94 19.8429 115.259 19.447 113.057 19.447H104.219V36.0733H113.539C115.81 36.0733 117.56 35.6676 118.749 34.8758C119.919 34.094 120.489 33.0153 120.489 31.5902C120.489 30.6401 120.224 29.8187 119.713 29.1457C119.192 28.4628 118.445 27.9383 117.491 27.582L116.99 27.394L117.461 27.1565C118.199 26.7903 118.759 26.2955 119.123 25.7017C119.497 25.1079 119.683 24.425 119.683 23.6729C119.693 22.3962 119.152 21.3967 118.051 20.6247ZM109.38 22.9999H112.281C114.011 22.9999 114.375 23.8213 114.375 24.5042C114.375 25.1871 114.011 26.0085 112.281 26.0085H109.38V22.9999ZM113.057 32.5007H109.38V29.3535H113.057C114.807 29.3535 115.181 30.2145 115.181 30.9271C115.181 31.6495 114.817 32.5007 113.057 32.5007Z" fill="#595959"/>
    <path d="M134.459 33.0844L135.6 36.0633H141.007L133.791 19.437H128.472L121.256 36.0633H126.565L127.705 33.0844H134.459ZM131.078 24.227L133.063 29.4029H129.092L131.078 24.227Z" fill="#595959"/>
    <path d="M155.557 35.0441C156.953 34.3711 158.054 33.4111 158.831 32.1642C159.607 30.9172 160 29.4327 160 27.7503C160 26.058 159.607 24.5735 158.831 23.3364C158.054 22.0993 156.953 21.1295 155.557 20.4565C154.151 19.7835 152.499 19.447 150.651 19.447H142.521V36.0733H150.651C152.49 36.0634 154.141 35.7171 155.557 35.0441ZM147.771 32.0355V23.465H150.405C151.693 23.465 152.735 23.8411 153.512 24.5933C154.289 25.3454 154.682 26.4043 154.682 27.7503C154.682 29.0962 154.289 30.1552 153.512 30.9073C152.735 31.6594 151.693 32.0355 150.405 32.0355H147.771Z" fill="#595959"/>
    <path d="M176.359 34.4008C177.755 33.0351 178.473 31.0854 178.473 28.6113V19.447H173.312V28.443C173.312 29.7395 173.066 30.7094 172.594 31.323C172.103 31.9464 171.395 32.2631 170.48 32.2631C169.566 32.2631 168.858 31.9464 168.367 31.323C167.895 30.7193 167.649 29.7494 167.649 28.443V19.447H162.389V28.6113C162.389 31.0854 163.097 33.0351 164.503 34.4008C165.909 35.7665 167.905 36.4593 170.431 36.4593C172.958 36.4494 174.954 35.7665 176.359 34.4008Z" fill="#595959"/>
</svg>
